FacadeStencil-Bold.ufo
<glyph name="period" format="2">
  <advance width="300"/>
  <unicode hex="002E"/>
  <outline>
    <contour>
      <point x="150" y="-20" type="curve" smooth="yes"/>
      <point x="212" y="-20"/>
      <point x="258" y="27"/>
      <point x="258" y="88" type="curve" smooth="yes"/>
      <point x="258" y="149"/>
      <point x="212" y="196"/>
      <point x="150" y="196" type="curve" smooth="yes"/>
      <point x="89" y="196"/>
      <point x="42" y="149"/>
      <point x="42" y="88" type="curve" smooth="yes"/>
      <point x="42" y="27"/>
      <point x="89" y="-20"/>
    </contour>
  </outline>
</glyph>
<glyph name="three" format="2">
  <advance width="750"/>
  <unicode hex="0033"/>
  <outline>
    <contour>
      <point x="351" y="-19" type="line"/>
      <point x="517" y="-4"/>
      <point x="654" y="127"/>
      <point x="654" y="296" type="curve" smooth="yes"/>
      <point x="654" y="430"/>
      <point x="568" y="539"/>
      <point x="453" y="581" type="curve"/>
      <point x="624" y="900" type="line"/>
      <point x="447" y="900" type="line"/>
      <point x="205" y="428" type="line"/>
      <point x="243" y="448"/>
      <point x="278" y="458"/>
      <point x="318" y="458" type="curve" smooth="yes"/>
      <point x="418" y="458"/>
      <point x="484" y="388"/>
      <point x="484" y="301" type="curve" smooth="yes"/>
      <point x="484" y="221"/>
      <point x="427" y="157"/>
      <point x="351" y="144" type="curve"/>
    </contour>
    <contour>
      <point x="292" y="-19" type="curve"/>
      <point x="292" y="145" type="line"/>
      <point x="215" y="158"/>
      <point x="158" y="221"/>
      <point x="139" y="295" type="curve"/>
      <point x="48" y="116" type="line"/>
      <point x="101" y="42"/>
      <point x="189" y="-11"/>
    </contour>
    <contour>
      <point x="108" y="744" type="line"/>
      <point x="302" y="744" type="line"/>
      <point x="381" y="900" type="line"/>
      <point x="108" y="900" type="line"/>
    </contour>
  </outline>
</glyph>
<glyph name="five" format="2">
  <advance width="750"/>
  <unicode hex="0035"/>
  <outline>
    <contour>
      <point x="356" y="-19" type="line"/>
      <point x="522" y="-5"/>
      <point x="654" y="129"/>
      <point x="654" y="300" type="curve" smooth="yes"/>
      <point x="654" y="478"/>
      <point x="511" y="606"/>
      <point x="352" y="606" type="curve" smooth="yes"/>
      <point x="335" y="606"/>
      <point x="320" y="605"/>
      <point x="306" y="601" type="curve"/>
      <point x="306" y="900" type="line"/>
      <point x="162" y="900" type="line"/>
      <point x="162" y="390" type="line"/>
      <point x="201" y="431"/>
      <point x="255" y="458"/>
      <point x="315" y="458" type="curve" smooth="yes"/>
      <point x="407" y="458"/>
      <point x="484" y="397"/>
      <point x="484" y="302" type="curve" smooth="yes"/>
      <point x="484" y="221"/>
      <point x="428" y="159"/>
      <point x="356" y="145" type="curve"/>
    </contour>
    <contour>
      <point x="292" y="-19" type="curve"/>
      <point x="292" y="144" type="line"/>
      <point x="216" y="157"/>
      <point x="158" y="220"/>
      <point x="139" y="295" type="curve"/>
      <point x="48" y="116" type="line"/>
      <point x="101" y="42"/>
      <point x="190" y="-10"/>
    </contour>
    <contour>
      <point x="366" y="744" type="line"/>
      <point x="594" y="744" type="line"/>
      <point x="594" y="900" type="line"/>
      <point x="366" y="900" type="line"/>
    </contour>
  </outline>
</glyph>
<glyph name="seven" format="2">
  <advance width="750"/>
  <unicode hex="0037"/>
  <outline>
    <contour>
      <point x="104" y="0" type="line"/>
      <point x="302" y="0" type="line"/>
      <point x="725" y="900" type="line"/>
      <point x="533" y="900" type="line"/>
    </contour>
    <contour>
      <point x="72" y="738" type="line"/>
      <point x="390" y="738" type="line"/>
      <point x="467" y="900" type="line"/>
      <point x="72" y="900" type="line"/>
    </contour>
  </outline>
</glyph>
<glyph name="less" format="2">
  <advance width="750"/>
  <unicode hex="003C"/>
  <outline>
    <contour>
      <point x="678" y="128" type="line"/>
      <point x="678" y="285" type="line"/>
      <point x="438" y="400" type="line" smooth="yes"/>
      <point x="401" y="418"/>
      <point x="358" y="435"/>
      <point x="317" y="451" type="curve"/>
      <point x="358" y="468"/>
      <point x="401" y="485"/>
      <point x="438" y="503" type="curve" smooth="yes"/>
      <point x="678" y="619" type="line"/>
      <point x="678" y="774" type="line"/>
      <point x="24" y="452" type="line"/>
    </contour>
  </outline>
</glyph>
<glyph name="J" format="2">
  <advance width="560"/>
  <unicode hex="004A"/>
  <anchor x="165" y="0" name="bottom"/>
  <anchor x="384" y="900" name="top"/>
  <outline>
    <contour>
      <point x="290" y="-8" type="line"/>
      <point x="394" y="24"/>
      <point x="476" y="112"/>
      <point x="476" y="270" type="curve" smooth="yes"/>
      <point x="476" y="900" type="line"/>
      <point x="290" y="900" type="line"/>
    </contour>
    <contour>
      <point x="195" y="-20" type="curve" smooth="yes"/>
      <point x="205" y="-20"/>
      <point x="216" y="-19"/>
      <point x="226" y="-17" type="curve"/>
      <point x="226" y="158" type="line"/>
      <point x="211" y="151"/>
      <point x="194" y="148"/>
      <point x="176" y="148" type="curve" smooth="yes"/>
      <point x="126" y="148"/>
      <point x="85" y="174"/>
      <point x="59" y="214" type="curve"/>
      <point x="12" y="46" type="line"/>
      <point x="57" y="1"/>
      <point x="127" y="-20"/>
    </contour>
  </outline>
</glyph>
<glyph name="W" format="2">
  <advance width="1220"/>
  <unicode hex="0057"/>
  <anchor x="611" y="0" name="bottom"/>
  <anchor x="614" y="900" name="top"/>
  <outline>
    <contour>
      <point x="844" y="-32" type="line"/>
      <point x="929" y="181" type="line"/>
      <point x="614" y="930" type="line"/>
      <point x="427" y="482" type="line"/>
      <point x="507" y="282" type="line"/>
      <point x="562" y="413" type="line" smooth="yes"/>
      <point x="577" y="449"/>
      <point x="593" y="485"/>
      <point x="610" y="541" type="curve"/>
      <point x="627" y="485"/>
      <point x="643" y="448"/>
      <point x="658" y="412" type="curve" smooth="yes"/>
    </contour>
    <contour>
      <point x="376" y="-32" type="line"/>
      <point x="473" y="200" type="line"/>
      <point x="196" y="900" type="line"/>
      <point x="6" y="900" type="line"/>
    </contour>
    <contour>
      <point x="961" y="262" type="line"/>
      <point x="1214" y="900" type="line"/>
      <point x="1033" y="900" type="line"/>
      <point x="869" y="480" type="line"/>
    </contour>
  </outline>
</glyph>
<glyph name="Z" format="2">
  <advance width="680"/>
  <unicode hex="005A"/>
  <anchor x="324" y="0" name="bottom"/>
  <anchor x="333" y="450" name="center"/>
  <anchor x="354" y="900" name="top"/>
  <outline>
    <contour>
      <point x="18" y="0" type="line"/>
      <point x="204" y="0" type="line"/>
      <point x="650" y="900" type="line"/>
      <point x="464" y="900" type="line"/>
    </contour>
    <contour>
      <point x="269" y="0" type="line"/>
      <point x="629" y="0" type="line"/>
      <point x="629" y="162" type="line"/>
      <point x="348" y="162" type="line"/>
    </contour>
    <contour>
      <point x="63" y="738" type="line"/>
      <point x="320" y="738" type="line"/>
      <point x="399" y="900" type="line"/>
      <point x="63" y="900" type="line"/>
    </contour>
  </outline>
</glyph>
<glyph name="underscore" format="2">
  <advance width="720"/>
  <unicode hex="005F"/>
  <outline>
    <contour>
      <point x="-6" y="-201" type="line"/>
      <point x="726" y="-201" type="line"/>
      <point x="726" y="-69" type="line"/>
      <point x="-6" y="-69" type="line"/>
    </contour>
  </outline>
</glyph>
<glyph name="g" format="2">
  <advance width="740"/>
  <unicode hex="0067"/>
  <anchor x="381" y="-360" name="bottom"/>
  <anchor x="599" y="300" name="center"/>
  <anchor x="381" y="600" name="top"/>
  <outline>
    <contour>
      <point x="336" y="-16" type="curve" smooth="yes"/>
      <point x="374" y="-16"/>
      <point x="409" y="-9"/>
      <point x="440" y="4" type="curve"/>
      <point x="440" y="161" type="line"/>
      <point x="416" y="146"/>
      <point x="387" y="137"/>
      <point x="357" y="137" type="curve" smooth="yes"/>
      <point x="269" y="137"/>
      <point x="198" y="210"/>
      <point x="198" y="300" type="curve" smooth="yes"/>
      <point x="198" y="390"/>
      <point x="269" y="463"/>
      <point x="357" y="463" type="curve" smooth="yes"/>
      <point x="387" y="463"/>
      <point x="416" y="454"/>
      <point x="440" y="439" type="curve"/>
      <point x="440" y="596" type="line"/>
      <point x="409" y="609"/>
      <point x="374" y="616"/>
      <point x="336" y="616" type="curve" smooth="yes"/>
      <point x="170" y="616"/>
      <point x="36" y="474"/>
      <point x="36" y="300" type="curve" smooth="yes"/>
      <point x="36" y="126"/>
      <point x="170" y="-16"/>
    </contour>
    <contour>
      <point x="390" y="-320" type="line"/>
      <point x="546" y="-298"/>
      <point x="674" y="-183"/>
      <point x="674" y="-8" type="curve" smooth="yes"/>
      <point x="674" y="600" type="line"/>
      <point x="500" y="600" type="line"/>
      <point x="500" y="17" type="line" smooth="yes"/>
      <point x="500" y="-71"/>
      <point x="460" y="-142"/>
      <point x="390" y="-165" type="curve"/>
    </contour>
    <contour>
      <point x="326" y="-320" type="curve"/>
      <point x="326" y="-170" type="line"/>
      <point x="241" y="-170"/>
      <point x="170" y="-129"/>
      <point x="127" y="-72" type="curve"/>
      <point x="85" y="-244" type="line"/>
      <point x="146" y="-291"/>
      <point x="234" y="-320"/>
    </contour>
  </outline>
</glyph>
<glyph name="s" format="2">
  <advance width="530"/>
  <unicode hex="0073"/>
  <anchor x="265" y="0" name="bottom"/>
  <anchor x="268" y="600" name="top"/>
  <outline>
    <contour>
      <point x="304" y="-17" type="line"/>
      <point x="420" y="-3"/>
      <point x="496" y="73"/>
      <point x="496" y="177" type="curve" smooth="yes"/>
      <point x="496" y="300"/>
      <point x="399" y="337"/>
      <point x="331" y="362" type="curve" smooth="yes"/>
      <point x="253" y="391" type="line" smooth="yes"/>
      <point x="219" y="404"/>
      <point x="207" y="421"/>
      <point x="207" y="439" type="curve" smooth="yes"/>
      <point x="207" y="457"/>
      <point x="219" y="473"/>
      <point x="244" y="479" type="curve"/>
      <point x="244" y="619" type="line"/>
      <point x="122" y="606"/>
      <point x="53" y="520"/>
      <point x="53" y="425" type="curve" smooth="yes"/>
      <point x="53" y="310"/>
      <point x="149" y="271"/>
      <point x="206" y="249" type="curve" smooth="yes"/>
      <point x="290" y="217" type="line" smooth="yes"/>
      <point x="314" y="208"/>
      <point x="342" y="197"/>
      <point x="342" y="166" type="curve" smooth="yes"/>
      <point x="342" y="146"/>
      <point x="330" y="129"/>
      <point x="304" y="122" type="curve"/>
    </contour>
    <contour>
      <point x="244" y="-20" type="curve"/>
      <point x="244" y="120" type="line"/>
      <point x="180" y="130"/>
      <point x="118" y="172"/>
      <point x="85" y="218" type="curve"/>
      <point x="42" y="54" type="line"/>
      <point x="85" y="12"/>
      <point x="167" y="-16"/>
    </contour>
    <contour>
      <point x="438" y="391" type="curve"/>
      <point x="478" y="549" type="line"/>
      <point x="447" y="581"/>
      <point x="379" y="612"/>
      <point x="304" y="619" type="curve"/>
      <point x="304" y="478" type="line"/>
      <point x="351" y="468"/>
      <point x="401" y="437"/>
    </contour>
  </outline>
</glyph>
<glyph name="t" format="2">
  <advance width="450"/>
  <unicode hex="0074"/>
  <anchor x="220" y="0" name="bottom"/>
  <anchor x="220" y="300" name="center"/>
  <anchor x="220" y="800" name="top"/>
  <anchor x="294" y="1020" name="topright"/>
  <outline>
    <contour>
      <point x="24" y="462" type="line"/>
      <point x="426" y="462" type="line"/>
      <point x="426" y="600" type="line"/>
      <point x="304" y="600" type="line"/>
      <point x="304" y="800" type="line"/>
      <point x="136" y="800" type="line"/>
      <point x="136" y="600" type="line"/>
      <point x="24" y="600" type="line"/>
    </contour>
    <contour>
      <point x="133" y="0" type="line"/>
      <point x="307" y="0" type="line"/>
      <point x="307" y="408" type="line"/>
      <point x="133" y="408" type="line"/>
    </contour>
  </outline>
</glyph>
<glyph name="v" format="2">
  <advance width="670"/>
  <unicode hex="0076"/>
  <outline>
    <contour>
      <point x="335" y="-30" type="line"/>
      <point x="423" y="140" type="line"/>
      <point x="199" y="600" type="line"/>
      <point x="6" y="600" type="line"/>
    </contour>
    <contour>
      <point x="457" y="204" type="line"/>
      <point x="664" y="600" type="line"/>
      <point x="479" y="600" type="line"/>
      <point x="372" y="380" type="line"/>
    </contour>
  </outline>
</glyph>
<glyph name="braceleft" format="2">
  <advance width="480"/>
  <unicode hex="007B"/>
  <outline>
    <contour>
      <point x="399" y="-186" type="curve"/>
      <point x="432" y="-54" type="line"/>
      <point x="348" y="-54"/>
      <point x="273" y="-36"/>
      <point x="273" y="72" type="curve" smooth="yes"/>
      <point x="273" y="125"/>
      <point x="291" y="190"/>
      <point x="291" y="247" type="curve" smooth="yes"/>
      <point x="291" y="385"/>
      <point x="186" y="414"/>
      <point x="87" y="414" type="curve"/>
      <point x="87" y="366" type="line"/>
      <point x="186" y="366"/>
      <point x="291" y="395"/>
      <point x="291" y="533" type="curve" smooth="yes"/>
      <point x="291" y="590"/>
      <point x="273" y="655"/>
      <point x="273" y="708" type="curve" smooth="yes"/>
      <point x="273" y="816"/>
      <point x="348" y="834"/>
      <point x="432" y="834" type="curve"/>
      <point x="399" y="966" type="line"/>
      <point x="255" y="966"/>
      <point x="123" y="891"/>
      <point x="123" y="725" type="curve" smooth="yes"/>
      <point x="123" y="664"/>
      <point x="141" y="603"/>
      <point x="141" y="548" type="curve" smooth="yes"/>
      <point x="141" y="461"/>
      <point x="96" y="426"/>
      <point x="24" y="390" type="curve"/>
      <point x="96" y="354"/>
      <point x="141" y="319"/>
      <point x="141" y="232" type="curve" smooth="yes"/>
      <point x="141" y="177"/>
      <point x="123" y="116"/>
      <point x="123" y="55" type="curve" smooth="yes"/>
      <point x="123" y="-111"/>
      <point x="255" y="-186"/>
    </contour>
  </outline>
</glyph>
<glyph name="ordmasculine" format="2">
  <advance width="480"/>
  <unicode hex="00BA"/>
  <outline>
    <contour>
      <point x="268" y="404" type="line"/>
      <point x="370" y="418"/>
      <point x="446" y="501"/>
      <point x="446" y="600" type="curve" smooth="yes"/>
      <point x="446" y="699"/>
      <point x="370" y="782"/>
      <point x="268" y="796" type="curve"/>
      <point x="268" y="676" type="line"/>
      <point x="301" y="664"/>
      <point x="323" y="635"/>
      <point x="323" y="600" type="curve" smooth="yes"/>
      <point x="323" y="565"/>
      <point x="301" y="536"/>
      <point x="268" y="524" type="curve"/>
    </contour>
    <contour>
      <point x="212" y="404" type="curve"/>
      <point x="212" y="524" type="line"/>
      <point x="178" y="536"/>
      <point x="157" y="565"/>
      <point x="157" y="600" type="curve" smooth="yes"/>
      <point x="157" y="635"/>
      <point x="178" y="664"/>
      <point x="212" y="676" type="curve"/>
      <point x="212" y="796" type="line"/>
      <point x="110" y="782"/>
      <point x="34" y="699"/>
      <point x="34" y="600" type="curve" smooth="yes"/>
      <point x="34" y="501"/>
      <point x="110" y="418"/>
    </contour>
  </outline>
</glyph>
<glyph name="Oslash" format="2">
  <advance width="1060"/>
  <unicode hex="00D8"/>
  <outline>
    <contour>
      <point x="210" y="-32" type="line"/>
      <point x="939" y="845" type="line"/>
      <point x="850" y="918" type="line"/>
      <point x="121" y="41" type="line"/>
    </contour>
    <contour>
      <point x="530" y="-18" type="curve" smooth="yes"/>
      <point x="793" y="-18"/>
      <point x="1006" y="191"/>
      <point x="1006" y="450" type="curve" smooth="yes"/>
      <point x="1006" y="552"/>
      <point x="973" y="646"/>
      <point x="917" y="723" type="curve"/>
      <point x="792" y="573" type="line"/>
      <point x="809" y="536"/>
      <point x="818" y="494"/>
      <point x="818" y="450" type="curve" smooth="yes"/>
      <point x="818" y="287"/>
      <point x="692" y="156"/>
      <point x="530" y="156" type="curve" smooth="yes"/>
      <point x="460" y="156"/>
      <point x="397" y="180"/>
      <point x="348" y="221" type="curve"/>
      <point x="233" y="84" type="line"/>
      <point x="315" y="20"/>
      <point x="418" y="-18"/>
    </contour>
    <contour>
      <point x="148" y="170" type="curve"/>
      <point x="271" y="319" type="line"/>
      <point x="253" y="358"/>
      <point x="242" y="403"/>
      <point x="242" y="450" type="curve" smooth="yes"/>
      <point x="242" y="613"/>
      <point x="368" y="744"/>
      <point x="530" y="744" type="curve" smooth="yes"/>
      <point x="603" y="744"/>
      <point x="668" y="718"/>
      <point x="718" y="674" type="curve"/>
      <point x="833" y="811" type="line"/>
      <point x="751" y="878"/>
      <point x="645" y="918"/>
      <point x="530" y="918" type="curve" smooth="yes"/>
      <point x="267" y="918"/>
      <point x="54" y="709"/>
      <point x="54" y="450" type="curve" smooth="yes"/>
      <point x="54" y="345"/>
      <point x="89" y="248"/>
    </contour>
  </outline>
</glyph>
<glyph name="ae" format="2">
  <advance width="1140"/>
  <unicode hex="00E6"/>
  <anchor x="570" y="0" name="bottom"/>
  <anchor x="570" y="600" name="top"/>
  <outline>
    <contour>
      <point x="282" y="-14" type="curve"/>
      <point x="282" y="118" type="line"/>
      <point x="231" y="122"/>
      <point x="198" y="148"/>
      <point x="198" y="187" type="curve" smooth="yes"/>
      <point x="198" y="232"/>
      <point x="243" y="258"/>
      <point x="320" y="258" type="curve" smooth="yes"/>
      <point x="347" y="258"/>
      <point x="377" y="255"/>
      <point x="405" y="249" type="curve"/>
      <point x="602" y="249" type="line"/>
      <point x="598" y="265"/>
      <point x="596" y="282"/>
      <point x="596" y="300" type="curve"/>
      <point x="587" y="300" type="line"/>
      <point x="587" y="398"/>
      <point x="640" y="466"/>
      <point x="717" y="479" type="curve"/>
      <point x="717" y="619" type="line"/>
      <point x="651" y="612"/>
      <point x="593" y="587"/>
      <point x="545" y="547" type="curve"/>
      <point x="498" y="590"/>
      <point x="429" y="615"/>
      <point x="346" y="619" type="curve"/>
      <point x="346" y="481" type="line"/>
      <point x="421" y="469"/>
      <point x="466" y="421"/>
      <point x="468" y="364" type="curve"/>
      <point x="466" y="352" type="line"/>
      <point x="412" y="374"/>
      <point x="359" y="384"/>
      <point x="301" y="384" type="curve" smooth="yes"/>
      <point x="142" y="384"/>
      <point x="36" y="304"/>
      <point x="36" y="184" type="curve" smooth="yes"/>
      <point x="36" y="63"/>
      <point x="129" y="-14"/>
    </contour>
    <contour>
      <point x="717" y="-16" type="curve"/>
      <point x="717" y="132" type="line"/>
      <point x="678" y="143"/>
      <point x="647" y="165"/>
      <point x="626" y="195" type="curve"/>
      <point x="455" y="195" type="line"/>
      <point x="434" y="162"/>
      <point x="392" y="134"/>
      <point x="346" y="123" type="curve"/>
      <point x="346" y="-8" type="line"/>
      <point x="413" y="4"/>
      <point x="472" y="37"/>
      <point x="518" y="85" type="curve"/>
      <point x="567" y="32"/>
      <point x="635" y="-4"/>
    </contour>
    <contour>
      <point x="115" y="413" type="line"/>
      <point x="159" y="449"/>
      <point x="217" y="477"/>
      <point x="282" y="481" type="curve"/>
      <point x="282" y="619" type="line"/>
      <point x="210" y="613"/>
      <point x="139" y="590"/>
      <point x="80" y="555" type="curve"/>
    </contour>
    <contour>
      <point x="781" y="-20" type="line"/>
      <point x="859" y="-20"/>
      <point x="936" y="3"/>
      <point x="996" y="48" type="curve"/>
      <point x="958" y="204" type="line"/>
      <point x="919" y="159"/>
      <point x="857" y="124"/>
      <point x="781" y="124" type="curve"/>
    </contour>
    <contour>
      <point x="558" y="249" type="line"/>
      <point x="1060" y="249" type="line"/>
      <point x="1060" y="310" type="line" smooth="yes"/>
      <point x="1060" y="477"/>
      <point x="942" y="605"/>
      <point x="781" y="619" type="curve"/>
      <point x="781" y="479" type="line"/>
      <point x="860" y="466"/>
      <point x="909" y="398"/>
      <point x="909" y="300" type="curve"/>
      <point x="938" y="356" type="line"/>
      <point x="896" y="369"/>
      <point x="853" y="375"/>
      <point x="800" y="375" type="curve" smooth="yes"/>
      <point x="693" y="375" type="line" smooth="yes"/>
      <point x="646" y="375"/>
      <point x="604" y="367"/>
      <point x="557" y="355" type="curve"/>
    </contour>
  </outline>
</glyph>
<glyph name="dcroat" format="2">
  <advance width="740"/>
  <unicode hex="0111"/>
  <outline>
    <contour>
      <point x="337" y="-16" type="curve" smooth="yes"/>
      <point x="374" y="-16"/>
      <point x="409" y="-9"/>
      <point x="440" y="3" type="curve"/>
      <point x="440" y="161" type="line"/>
      <point x="415" y="146"/>
      <point x="387" y="137"/>
      <point x="357" y="137" type="curve" smooth="yes"/>
      <point x="269" y="137"/>
      <point x="198" y="210"/>
      <point x="198" y="300" type="curve" smooth="yes"/>
      <point x="198" y="390"/>
      <point x="269" y="463"/>
      <point x="357" y="463" type="curve" smooth="yes"/>
      <point x="387" y="463"/>
      <point x="416" y="454"/>
      <point x="440" y="439" type="curve"/>
      <point x="440" y="597" type="line"/>
      <point x="409" y="609"/>
      <point x="374" y="616"/>
      <point x="337" y="616" type="curve" smooth="yes"/>
      <point x="170" y="616"/>
      <point x="36" y="474"/>
      <point x="36" y="300" type="curve" smooth="yes"/>
      <point x="36" y="126"/>
      <point x="170" y="-16"/>
    </contour>
    <contour>
      <point x="500" y="0" type="line"/>
      <point x="674" y="0" type="line"/>
      <point x="674" y="672" type="line"/>
      <point x="500" y="672" type="line"/>
    </contour>
    <contour>
      <point x="315" y="726" type="line"/>
      <point x="731" y="726" type="line"/>
      <point x="731" y="834" type="line"/>
      <point x="674" y="834" type="line"/>
      <point x="674" y="960" type="line"/>
      <point x="512" y="960" type="line"/>
      <point x="512" y="834" type="line"/>
      <point x="315" y="834" type="line"/>
    </contour>
  </outline>
</glyph>
<glyph name="OE" format="2">
  <advance width="1320"/>
  <unicode hex="0152"/>
  <anchor x="530" y="0" name="bottom"/>
  <anchor x="530" y="450" name="center"/>
  <anchor x="530" y="0" name="ogonek"/>
  <anchor x="530" y="900" name="top"/>
  <anchor x="530" y="480" name="top-vertical"/>
  <anchor x="60" y="900" name="topleft"/>
  <anchor x="1000" y="900" name="topright"/>
  <outline>
    <contour>
      <point x="496" y="-17" type="curve"/>
      <point x="496" y="158" type="line"/>
      <point x="351" y="175"/>
      <point x="242" y="299"/>
      <point x="242" y="450" type="curve" smooth="yes"/>
      <point x="242" y="601"/>
      <point x="351" y="725"/>
      <point x="496" y="742" type="curve"/>
      <point x="496" y="917" type="line"/>
      <point x="249" y="900"/>
      <point x="54" y="698"/>
      <point x="54" y="450" type="curve" smooth="yes"/>
      <point x="54" y="202"/>
      <point x="249" y="0"/>
    </contour>
    <contour>
      <point x="564" y="-17" type="line"/>
      <point x="658" y="-10"/>
      <point x="744" y="28"/>
      <point x="813" y="107" type="curve"/>
      <point x="786" y="117" type="line"/>
      <point x="786" y="0" type="line"/>
      <point x="960" y="0" type="line"/>
      <point x="960" y="900" type="line"/>
      <point x="786" y="900" type="line"/>
      <point x="786" y="783" type="line"/>
      <point x="813" y="793" type="line"/>
      <point x="744" y="872"/>
      <point x="658" y="910"/>
      <point x="564" y="917" type="curve"/>
      <point x="564" y="742" type="line"/>
      <point x="709" y="725"/>
      <point x="818" y="602"/>
      <point x="818" y="450" type="curve" smooth="yes"/>
      <point x="818" y="298"/>
      <point x="709" y="175"/>
      <point x="564" y="158" type="curve"/>
    </contour>
    <contour>
      <point x="1020" y="0" type="line"/>
      <point x="1266" y="0" type="line"/>
      <point x="1266" y="162" type="line"/>
      <point x="1020" y="162" type="line"/>
    </contour>
    <contour>
      <point x="1020" y="456" type="line"/>
      <point x="1196" y="456" type="line"/>
      <point x="1196" y="606" type="line"/>
      <point x="1020" y="606" type="line"/>
    </contour>
    <contour>
      <point x="1020" y="744" type="line"/>
      <point x="1266" y="744" type="line"/>
      <point x="1266" y="900" type="line"/>
      <point x="1020" y="900" type="line"/>
    </contour>
  </outline>
</glyph>
<glyph name="tbar" format="2">
  <advance width="450"/>
  <unicode hex="0167"/>
  <outline>
    <contour>
      <point x="24" y="462" type="line"/>
      <point x="426" y="462" type="line"/>
      <point x="426" y="600" type="line"/>
      <point x="304" y="600" type="line"/>
      <point x="304" y="800" type="line"/>
      <point x="136" y="800" type="line"/>
      <point x="136" y="600" type="line"/>
      <point x="24" y="600" type="line"/>
    </contour>
    <contour>
      <point x="133" y="0" type="line"/>
      <point x="307" y="0" type="line"/>
      <point x="307" y="192" type="line"/>
      <point x="133" y="192" type="line"/>
    </contour>
    <contour>
      <point x="30" y="246" type="line"/>
      <point x="410" y="246" type="line"/>
      <point x="410" y="354" type="line"/>
      <point x="307" y="354" type="line"/>
      <point x="307" y="408" type="line"/>
      <point x="133" y="408" type="line"/>
      <point x="133" y="354" type="line"/>
      <point x="30" y="354" type="line"/>
    </contour>
  </outline>
</glyph>
<glyph name="Uhorn" format="2">
  <advance width="940"/>
  <unicode hex="01AF"/>
  <anchor x="400" y="0" name="bottom"/>
  <anchor x="400" y="900" name="top"/>
  <outline>
    <contour>
      <point x="434" y="-20" type="line"/>
      <point x="609" y="-8"/>
      <point x="728" y="112"/>
      <point x="728" y="306" type="curve" smooth="yes"/>
      <point x="728" y="900" type="line"/>
      <point x="548" y="900" type="line"/>
      <point x="548" y="306" type="line" smooth="yes"/>
      <point x="548" y="223"/>
      <point x="502" y="167"/>
      <point x="434" y="155" type="curve"/>
    </contour>
    <contour>
      <point x="366" y="-20" type="curve"/>
      <point x="366" y="155" type="line"/>
      <point x="301" y="169"/>
      <point x="258" y="228"/>
      <point x="258" y="312" type="curve" smooth="yes"/>
      <point x="258" y="900" type="line"/>
      <point x="72" y="900" type="line"/>
      <point x="72" y="303" type="line" smooth="yes"/>
      <point x="72" y="112"/>
      <point x="194" y="-8"/>
    </contour>
    <contour>
      <point x="782" y="680" type="line"/>
      <point x="862" y="686"/>
      <point x="936" y="751"/>
      <point x="936" y="866" type="curve" smooth="yes"/>
      <point x="936" y="896"/>
      <point x="931" y="927"/>
      <point x="912" y="960" type="curve"/>
      <point x="774" y="960" type="line"/>
      <point x="793" y="927"/>
      <point x="798" y="892"/>
      <point x="798" y="868" type="curve" smooth="yes"/>
      <point x="798" y="843"/>
      <point x="791" y="826"/>
      <point x="782" y="814" type="curve"/>
    </contour>
  </outline>
</glyph>
<glyph name="Gstroke" format="2">
  <advance width="920"/>
  <unicode hex="01E4"/>
  <outline>
    <contour>
      <point x="540" y="-18" type="curve" smooth="yes"/>
      <point x="565" y="-18"/>
      <point x="588" y="-16"/>
      <point x="612" y="-10" type="curve"/>
      <point x="612" y="160" type="line"/>
      <point x="589" y="151"/>
      <point x="565" y="148"/>
      <point x="537" y="148" type="curve" smooth="yes"/>
      <point x="368" y="148"/>
      <point x="242" y="272"/>
      <point x="242" y="448" type="curve" smooth="yes"/>
      <point x="242" y="610"/>
      <point x="351" y="732"/>
      <point x="504" y="747" type="curve"/>
      <point x="504" y="917" type="line"/>
      <point x="249" y="903"/>
      <point x="54" y="706"/>
      <point x="54" y="448" type="curve" smooth="yes"/>
      <point x="54" y="179"/>
      <point x="267" y="-18"/>
    </contour>
    <contour>
      <point x="676" y="-3" type="line"/>
      <point x="734" y="11"/>
      <point x="791" y="36"/>
      <point x="840" y="67" type="curve"/>
      <point x="840" y="309" type="line"/>
      <point x="910" y="309" type="line"/>
      <point x="910" y="435" type="line"/>
      <point x="840" y="435" type="line"/>
      <point x="840" y="504" type="line"/>
      <point x="676" y="504" type="line"/>
      <point x="676" y="435" type="line"/>
      <point x="490" y="435" type="line"/>
      <point x="490" y="309" type="line"/>
      <point x="676" y="309" type="line"/>
    </contour>
    <contour>
      <point x="801" y="601" type="curve"/>
      <point x="852" y="807" type="line"/>
      <point x="776" y="871"/>
      <point x="680" y="911"/>
      <point x="572" y="917" type="curve"/>
      <point x="572" y="747" type="line"/>
      <point x="677" y="737"/>
      <point x="754" y="677"/>
    </contour>
  </outline>
</glyph>
<glyph name="cedillacomb" format="2">
  <unicode hex="0327"/>
  <anchor x="432" y="0" name="_bottom"/>
  <anchor x="272" y="-240" name="bottom"/>
  <outline>
    <contour>
      <point x="152" y="-252" type="line"/>
      <point x="367" y="-252" type="line"/>
      <point x="493" y="-72" type="line"/>
      <point x="339" y="-72" type="line"/>
    </contour>
  </outline>
</glyph>
<glyph name="brevebelowcomb" format="2">
  <unicode hex="032E"/>
  <anchor x="360" y="0" name="_bottom"/>
  <anchor x="360" y="-249" name="bottom"/>
  <outline>
    <contour>
      <point x="360" y="-249" type="curve" smooth="yes"/>
      <point x="461" y="-249"/>
      <point x="540" y="-175"/>
      <point x="540" y="-75" type="curve"/>
      <point x="452" y="-75" type="line"/>
      <point x="452" y="-126"/>
      <point x="409" y="-167"/>
      <point x="360" y="-167" type="curve" smooth="yes"/>
      <point x="311" y="-167"/>
      <point x="268" y="-126"/>
      <point x="268" y="-75" type="curve"/>
      <point x="180" y="-75" type="line"/>
      <point x="180" y="-174"/>
      <point x="260" y="-249"/>
    </contour>
  </outline>
</glyph>
<glyph name="slashshortcomb" format="2">
  <unicode hex="0337"/>
  <anchor x="278" y="300" name="_center"/>
  <outline>
    <contour>
      <point x="72" y="223" type="line"/>
      <point x="123" y="143" type="line"/>
      <point x="478" y="377" type="line"/>
      <point x="427" y="457" type="line"/>
    </contour>
  </outline>
</glyph>
<glyph name="Germandbls" format="2">
  <advance width="990"/>
  <unicode hex="1E9E"/>
  <outline>
    <contour>
      <point x="512" y="428" type="line"/>
      <point x="549" y="448"/>
      <point x="584" y="458"/>
      <point x="624" y="458" type="curve" smooth="yes"/>
      <point x="647" y="458"/>
      <point x="669" y="454"/>
      <point x="688" y="447" type="curve"/>
      <point x="930" y="900" type="line"/>
      <point x="341" y="900" type="line"/>
      <point x="341" y="738" type="line"/>
      <point x="670" y="738" type="line"/>
    </contour>
    <contour>
      <point x="597" y="-19" type="curve"/>
      <point x="597" y="145" type="line"/>
      <point x="517" y="159"/>
      <point x="458" y="227"/>
      <point x="442" y="306" type="curve"/>
      <point x="350" y="123" type="line"/>
      <point x="401" y="45"/>
      <point x="492" y="-10"/>
    </contour>
    <contour>
      <point x="96" y="0" type="line"/>
      <point x="281" y="0" type="line"/>
      <point x="281" y="900" type="line"/>
      <point x="96" y="900" type="line"/>
    </contour>
    <contour>
      <point x="657" y="-19" type="line"/>
      <point x="823" y="-4"/>
      <point x="960" y="128"/>
      <point x="960" y="299" type="curve" smooth="yes"/>
      <point x="960" y="409"/>
      <point x="902" y="504"/>
      <point x="819" y="557" type="curve"/>
      <point x="742" y="415" type="line"/>
      <point x="772" y="386"/>
      <point x="790" y="346"/>
      <point x="790" y="301" type="curve" smooth="yes"/>
      <point x="790" y="221"/>
      <point x="734" y="157"/>
      <point x="657" y="144" type="curve"/>
    </contour>
  </outline>
</glyph>
<glyph name="dagger" format="2">
  <advance width="600"/>
  <unicode hex="2020"/>
  <outline>
    <contour>
      <point x="60" y="563" type="line"/>
      <point x="540" y="563" type="line"/>
      <point x="540" y="698" type="line"/>
      <point x="361" y="683" type="line"/>
      <point x="381" y="900" type="line"/>
      <point x="219" y="900" type="line"/>
      <point x="240" y="683" type="line"/>
      <point x="60" y="698" type="line"/>
    </contour>
    <contour>
      <point x="219" y="0" type="line"/>
      <point x="381" y="0" type="line"/>
      <point x="366" y="509" type="line"/>
      <point x="235" y="509" type="line"/>
    </contour>
  </outline>
</glyph>
<glyph name="numero" format="2">
  <advance width="1380"/>
  <unicode hex="2116"/>
  <outline>
    <contour>
      <point x="804" y="-30" type="line"/>
      <point x="804" y="225" type="line"/>
      <point x="96" y="930" type="line"/>
      <point x="96" y="677" type="line"/>
    </contour>
    <contour>
      <point x="96" y="0" type="line"/>
      <point x="264" y="0" type="line"/>
      <point x="264" y="410" type="line"/>
      <point x="96" y="577" type="line"/>
    </contour>
    <contour>
      <point x="804" y="325" type="line"/>
      <point x="804" y="900" type="line"/>
      <point x="636" y="900" type="line"/>
      <point x="636" y="492" type="line"/>
    </contour>
    <contour>
      <point x="1140" y="100" type="curve" smooth="yes"/>
      <point x="1199" y="100"/>
      <point x="1245" y="146"/>
      <point x="1245" y="205" type="curve" smooth="yes"/>
      <point x="1245" y="264"/>
      <point x="1199" y="310"/>
      <point x="1140" y="310" type="curve" smooth="yes"/>
      <point x="1081" y="310"/>
      <point x="1035" y="264"/>
      <point x="1035" y="205" type="curve" smooth="yes"/>
      <point x="1035" y="146"/>
      <point x="1081" y="100"/>
    </contour>
    <contour>
      <point x="1112" y="404" type="curve"/>
      <point x="1112" y="524" type="line"/>
      <point x="1078" y="536"/>
      <point x="1057" y="565"/>
      <point x="1057" y="600" type="curve" smooth="yes"/>
      <point x="1057" y="635"/>
      <point x="1078" y="664"/>
      <point x="1112" y="676" type="curve"/>
      <point x="1112" y="796" type="line"/>
      <point x="1010" y="782"/>
      <point x="934" y="699"/>
      <point x="934" y="600" type="curve" smooth="yes"/>
      <point x="934" y="501"/>
      <point x="1010" y="418"/>
    </contour>
    <contour>
      <point x="1168" y="404" type="line"/>
      <point x="1270" y="418"/>
      <point x="1346" y="501"/>
      <point x="1346" y="600" type="curve" smooth="yes"/>
      <point x="1346" y="699"/>
      <point x="1270" y="782"/>
      <point x="1168" y="796" type="curve"/>
      <point x="1168" y="676" type="line"/>
      <point x="1201" y="664"/>
      <point x="1223" y="635"/>
      <point x="1223" y="600" type="curve" smooth="yes"/>
      <point x="1223" y="565"/>
      <point x="1201" y="536"/>
      <point x="1168" y="524" type="curve"/>
    </contour>
  </outline>
</glyph>
<glyph name="caroncomb.alt.t" format="2">
  <anchor x="239" y="960" name="_topright"/>
  <outline>
    <contour>
      <point x="265" y="660" type="curve"/>
      <point x="373" y="660" type="line"/>
      <point x="418" y="730"/>
      <point x="449" y="810"/>
      <point x="458" y="900" type="curve"/>
      <point x="362" y="900" type="line"/>
      <point x="352" y="801"/>
      <point x="315" y="722"/>
    </contour>
  </outline>
</glyph>
<glyph name="d.croat" format="2">
  <advance width="740"/>
  <anchor x="347" y="0" name="bottom"/>
  <anchor x="593" y="780" name="center"/>
  <anchor x="674" y="0" name="ogonek"/>
  <anchor x="347" y="600" name="top"/>
  <anchor x="674" y="960" name="topright"/>
  <outline>
    <contour>
      <point x="337" y="-16" type="curve" smooth="yes"/>
      <point x="442" y="-16"/>
      <point x="525" y="38"/>
      <point x="568" y="120" type="curve"/>
      <point x="524" y="150" type="line"/>
      <point x="524" y="0" type="line"/>
      <point x="674" y="0" type="line"/>
      <point x="674" y="672" type="line"/>
      <point x="512" y="672" type="line"/>
      <point x="512" y="450" type="line"/>
      <point x="568" y="480" type="line"/>
      <point x="525" y="562"/>
      <point x="442" y="616"/>
      <point x="337" y="616" type="curve" smooth="yes"/>
      <point x="170" y="616"/>
      <point x="36" y="474"/>
      <point x="36" y="300" type="curve" smooth="yes"/>
      <point x="36" y="126"/>
      <point x="170" y="-16"/>
    </contour>
    <contour>
      <point x="357" y="137" type="curve" smooth="yes"/>
      <point x="269" y="137"/>
      <point x="198" y="210"/>
      <point x="198" y="300" type="curve" smooth="yes"/>
      <point x="198" y="390"/>
      <point x="269" y="463"/>
      <point x="357" y="463" type="curve" smooth="yes"/>
      <point x="445" y="463"/>
      <point x="516" y="390"/>
      <point x="516" y="300" type="curve" smooth="yes"/>
      <point x="516" y="210"/>
      <point x="445" y="137"/>
    </contour>
    <contour>
      <point x="512" y="732" type="line"/>
      <point x="674" y="732" type="line"/>
      <point x="674" y="960" type="line"/>
      <point x="512" y="960" type="line"/>
    </contour>
  </outline>
</glyph>
<glyph name="dotaccentcomb.case" format="2">
  <anchor x="360" y="900" name="_top"/>
  <outline>
    <contour>
      <point x="360" y="987" type="curve" smooth="yes"/>
      <point x="413" y="987"/>
      <point x="453" y="1028"/>
      <point x="453" y="1080" type="curve" smooth="yes"/>
      <point x="453" y="1133"/>
      <point x="413" y="1173"/>
      <point x="360" y="1173" type="curve" smooth="yes"/>
      <point x="308" y="1173"/>
      <point x="267" y="1133"/>
      <point x="267" y="1080" type="curve" smooth="yes"/>
      <point x="267" y="1028"/>
      <point x="308" y="987"/>
    </contour>
  </outline>
</glyph>
<glyph name="eight.numr" format="2">
  <advance width="480"/>
  <outline>
    <contour>
      <point x="268" y="403" type="line"/>
      <point x="370" y="409"/>
      <point x="451" y="468"/>
      <point x="451" y="567" type="curve" smooth="yes"/>
      <point x="451" y="642"/>
      <point x="402" y="701"/>
      <point x="334" y="722" type="curve"/>
      <point x="358" y="677" type="line"/>
      <point x="390" y="695"/>
      <point x="415" y="731"/>
      <point x="415" y="776" type="curve" smooth="yes"/>
      <point x="415" y="863"/>
      <point x="358" y="911"/>
      <point x="268" y="917" type="curve"/>
      <point x="268" y="818" type="line"/>
      <point x="288" y="810"/>
      <point x="301" y="792"/>
      <point x="301" y="771" type="curve" smooth="yes"/>
      <point x="301" y="750"/>
      <point x="288" y="732"/>
      <point x="268" y="724" type="curve"/>
      <point x="268" y="652" type="line"/>
      <point x="300" y="643"/>
      <point x="322" y="616"/>
      <point x="322" y="582" type="curve" smooth="yes"/>
      <point x="322" y="548"/>
      <point x="300" y="521"/>
      <point x="268" y="512" type="curve"/>
    </contour>
    <contour>
      <point x="212" y="403" type="curve"/>
      <point x="212" y="512" type="line"/>
      <point x="178" y="521"/>
      <point x="158" y="549"/>
      <point x="158" y="582" type="curve" smooth="yes"/>
      <point x="158" y="615"/>
      <point x="178" y="643"/>
      <point x="212" y="652" type="curve"/>
      <point x="212" y="724" type="line"/>
      <point x="191" y="732"/>
      <point x="179" y="751"/>
      <point x="179" y="771" type="curve" smooth="yes"/>
      <point x="179" y="791"/>
      <point x="191" y="810"/>
      <point x="212" y="818" type="curve"/>
      <point x="212" y="917" type="line"/>
      <point x="121" y="908"/>
      <point x="65" y="849"/>
      <point x="65" y="776" type="curve" smooth="yes"/>
      <point x="65" y="731"/>
      <point x="89" y="695"/>
      <point x="122" y="677" type="curve"/>
      <point x="146" y="722" type="line"/>
      <point x="78" y="701"/>
      <point x="29" y="642"/>
      <point x="29" y="567" type="curve" smooth="yes"/>
      <point x="29" y="470"/>
      <point x="115" y="411"/>
    </contour>
  </outline>
</glyph>
<glyph name="el.numr" format="2">
  <advance width="480"/>
  <outline>
    <contour>
      <point x="55" y="420" type="line"/>
      <point x="187" y="420" type="line"/>
      <point x="343" y="690" type="line"/>
      <point x="323" y="680"/>
      <point x="302" y="672"/>
      <point x="277" y="672" type="curve" smooth="yes"/>
      <point x="225" y="672"/>
      <point x="204" y="706"/>
      <point x="204" y="738" type="curve" smooth="yes"/>
      <point x="204" y="767"/>
      <point x="219" y="790"/>
      <point x="248" y="799" type="curve"/>
      <point x="248" y="916" type="line"/>
      <point x="147" y="905"/>
      <point x="72" y="835"/>
      <point x="72" y="743" type="curve" smooth="yes"/>
      <point x="72" y="669"/>
      <point x="118" y="607"/>
      <point x="197" y="582" type="curve"/>
      <point x="186" y="646" type="line"/>
    </contour>
    <contour>
      <point x="247" y="420" type="line"/>
      <point x="435" y="420" type="line"/>
      <point x="435" y="534" type="line"/>
      <point x="313" y="534" type="line"/>
    </contour>
    <contour>
      <point x="369" y="736" type="curve"/>
      <point x="435" y="848" type="line"/>
      <point x="409" y="881"/>
      <point x="362" y="908"/>
      <point x="304" y="916" type="curve"/>
      <point x="304" y="800" type="line"/>
      <point x="337" y="789"/>
      <point x="359" y="763"/>
    </contour>
  </outline>
</glyph>
<glyph name="emdash.case" format="2">
  <advance width="1440"/>
  <outline>
    <contour>
      <point x="60" y="375" type="line"/>
      <point x="1380" y="375" type="line"/>
      <point x="1380" y="525" type="line"/>
      <point x="60" y="525" type="line"/>
    </contour>
  </outline>
</glyph>
<glyph name="endash.case" format="2">
  <advance width="720"/>
  <outline>
    <contour>
      <point x="50" y="378" type="line"/>
      <point x="670" y="378" type="line"/>
      <point x="670" y="522" type="line"/>
      <point x="50" y="522" type="line"/>
    </contour>
  </outline>
</glyph>
<glyph name="five.numr" format="2">
  <advance width="480"/>
  <outline>
    <contour>
      <point x="237" y="404" type="line"/>
      <point x="340" y="416"/>
      <point x="414" y="488"/>
      <point x="414" y="585" type="curve" smooth="yes"/>
      <point x="414" y="675"/>
      <point x="350" y="747"/>
      <point x="246" y="747" type="curve" smooth="yes"/>
      <point x="214" y="747"/>
      <point x="191" y="740"/>
      <point x="173" y="728" type="curve"/>
      <point x="227" y="692" type="line"/>
      <point x="227" y="900" type="line"/>
      <point x="113" y="900" type="line"/>
      <point x="113" y="621" type="line"/>
      <point x="137" y="643"/>
      <point x="166" y="656"/>
      <point x="202" y="656" type="curve" smooth="yes"/>
      <point x="253" y="656"/>
      <point x="282" y="626"/>
      <point x="282" y="589" type="curve" smooth="yes"/>
      <point x="282" y="561"/>
      <point x="266" y="539"/>
      <point x="237" y="528" type="curve"/>
    </contour>
    <contour>
      <point x="181" y="404" type="curve"/>
      <point x="181" y="525" type="line"/>
      <point x="141" y="533"/>
      <point x="116" y="563"/>
      <point x="107" y="592" type="curve"/>
      <point x="42" y="474" type="line"/>
      <point x="70" y="440"/>
      <point x="119" y="411"/>
    </contour>
    <contour>
      <point x="283" y="792" type="line"/>
      <point x="390" y="792" type="line"/>
      <point x="390" y="900" type="line"/>
      <point x="283" y="900" type="line"/>
    </contour>
  </outline>
</glyph>
<glyph name="four.lf" format="2">
  <advance width="750"/>
  <outline>
    <contour>
      <point x="2" y="212" type="line"/>
      <point x="177" y="212" type="line"/>
      <point x="534" y="900" type="line"/>
      <point x="354" y="900" type="line"/>
    </contour>
    <contour>
      <point x="438" y="0" type="line"/>
      <point x="606" y="0" type="line"/>
      <point x="606" y="158" type="line"/>
      <point x="438" y="158" type="line"/>
    </contour>
    <contour>
      <point x="243" y="212" type="line"/>
      <point x="708" y="212" type="line"/>
      <point x="708" y="356" type="line"/>
      <point x="602" y="356" type="line"/>
      <point x="602" y="622" type="line"/>
      <point x="442" y="536" type="line"/>
      <point x="442" y="356" type="line"/>
      <point x="317" y="356" type="line"/>
    </contour>
  </outline>
</glyph>
<glyph name="guilsinglleft.case" format="2">
  <advance width="360"/>
  <outline>
    <contour>
      <point x="177" y="210" type="line"/>
      <point x="339" y="210" type="line"/>
      <point x="177" y="450" type="line"/>
      <point x="339" y="690" type="line"/>
      <point x="177" y="690" type="line"/>
      <point x="15" y="450" type="line"/>
    </contour>
  </outline>
</glyph>
<glyph name="h.hbar" format="2">
  <advance width="700"/>
  <anchor x="360" y="0" name="bottom"/>
  <anchor x="147" y="780" name="center"/>
  <anchor x="147" y="960" name="top"/>
  <outline>
    <contour>
      <point x="234" y="331" type="line"/>
      <point x="234" y="418"/>
      <point x="293" y="464"/>
      <point x="356" y="464" type="curve" smooth="yes"/>
      <point x="434" y="464"/>
      <point x="478" y="400"/>
      <point x="478" y="329" type="curve" smooth="yes"/>
      <point x="478" y="0" type="line"/>
      <point x="646" y="0" type="line"/>
      <point x="646" y="359" type="line" smooth="yes"/>
      <point x="646" y="525"/>
      <point x="529" y="620"/>
      <point x="402" y="620" type="curve" smooth="yes"/>
      <point x="274" y="620"/>
      <point x="168" y="526"/>
      <point x="168" y="355" type="curve"/>
    </contour>
    <contour>
      <point x="66" y="0" type="line"/>
      <point x="234" y="0" type="line"/>
      <point x="234" y="410" type="line"/>
      <point x="228" y="440" type="line"/>
      <point x="228" y="960" type="line"/>
      <point x="66" y="960" type="line"/>
    </contour>
  </outline>
</glyph>
<glyph name="parenleft.titl" format="2">
  <advance width="480"/>
  <outline>
    <contour>
      <point x="282" y="-180" type="curve"/>
      <point x="372" y="-180" type="line"/>
      <point x="262" y="-19"/>
      <point x="201" y="176"/>
      <point x="201" y="390" type="curve" smooth="yes"/>
      <point x="201" y="604"/>
      <point x="262" y="799"/>
      <point x="372" y="960" type="curve"/>
      <point x="282" y="960" type="line"/>
      <point x="181" y="793"/>
      <point x="122" y="598"/>
      <point x="122" y="390" type="curve" smooth="yes"/>
      <point x="122" y="182"/>
      <point x="181" y="-13"/>
    </contour>
  </outline>
</glyph>
<glyph name="plus.titl" format="2">
  <advance width="750"/>
  <outline>
    <contour>
      <point x="334" y="135" type="line"/>
      <point x="416" y="135" type="line"/>
      <point x="416" y="765" type="line"/>
      <point x="334" y="765" type="line"/>
    </contour>
    <contour>
      <point x="60" y="411" type="line"/>
      <point x="690" y="411" type="line"/>
      <point x="690" y="489" type="line"/>
      <point x="60" y="489" type="line"/>
    </contour>
  </outline>
</glyph>
<glyph name="t_t" format="2">
  <advance width="860"/>
  <outline>
    <contour>
      <point x="24" y="462" type="line"/>
      <point x="836" y="462" type="line"/>
      <point x="836" y="600" type="line"/>
      <point x="714" y="600" type="line"/>
      <point x="714" y="800" type="line"/>
      <point x="546" y="800" type="line"/>
      <point x="546" y="600" type="line"/>
      <point x="304" y="600" type="line"/>
      <point x="304" y="800" type="line"/>
      <point x="136" y="800" type="line"/>
      <point x="136" y="600" type="line"/>
      <point x="24" y="600" type="line"/>
    </contour>
    <contour>
      <point x="133" y="0" type="line"/>
      <point x="307" y="0" type="line"/>
      <point x="307" y="408" type="line"/>
      <point x="133" y="408" type="line"/>
    </contour>
    <contour>
      <point x="543" y="0" type="line"/>
      <point x="717" y="0" type="line"/>
      <point x="717" y="408" type="line"/>
      <point x="543" y="408" type="line"/>
    </contour>
  </outline>
</glyph>
<glyph name="three.lf" format="2">
  <advance width="690"/>
  <outline>
    <contour>
      <point x="321" y="-19" type="line"/>
      <point x="487" y="-4"/>
      <point x="624" y="127"/>
      <point x="624" y="296" type="curve" smooth="yes"/>
      <point x="624" y="430"/>
      <point x="538" y="539"/>
      <point x="423" y="581" type="curve"/>
      <point x="594" y="900" type="line"/>
      <point x="417" y="900" type="line"/>
      <point x="175" y="428" type="line"/>
      <point x="213" y="448"/>
      <point x="248" y="458"/>
      <point x="288" y="458" type="curve" smooth="yes"/>
      <point x="388" y="458"/>
      <point x="454" y="388"/>
      <point x="454" y="301" type="curve" smooth="yes"/>
      <point x="454" y="221"/>
      <point x="397" y="157"/>
      <point x="321" y="144" type="curve"/>
    </contour>
    <contour>
      <point x="262" y="-19" type="curve"/>
      <point x="262" y="145" type="line"/>
      <point x="185" y="158"/>
      <point x="128" y="221"/>
      <point x="109" y="295" type="curve"/>
      <point x="18" y="116" type="line"/>
      <point x="71" y="42"/>
      <point x="159" y="-11"/>
    </contour>
    <contour>
      <point x="78" y="744" type="line"/>
      <point x="272" y="744" type="line"/>
      <point x="351" y="900" type="line"/>
      <point x="78" y="900" type="line"/>
    </contour>
  </outline>
</glyph>
